{
  "accessors": [
    {
      "bufferView": 0,
      "componentType": 5125,
      "count": 3600,
      "type": "SCALAR"
    },
    {
      "bufferView": 1,
      "componentType": 5126,
      "count": 753,
      "max": [
        0.364010035991669,
        0.754483997821808,
        0.154239997267723
      ],
      "min": [
        -0.0874090045690536,
        0.58147794008255,
        -0.154239997267723
      ],
      "type": "VEC3"
    },
    {
      "bufferView": 2,
      "componentType": 5126,
      "count": 753,
      "type": "VEC3"
    },
    {
      "bufferView": 3,
      "componentType": 5126,
      "count": 753,
      "type": "VEC4"
    },
    {
      "bufferView": 4,
      "componentType": 5126,
      "count": 753,
      "type": "VEC2"
    },
    {
      "bufferView": 5,
      "componentType": 5125,
      "count": 15396,
      "type": "SCALAR"
    },
    {
      "bufferView": 6,
      "componentType": 5126,
      "count": 2688,
      "max": [
        0.786607027053833,
        1.46400201320648,
        0.839734077453613
      ],
      "min": [
        -0.786607086658478,
        1.10062396526337,
        -0.839734077453613
      ],
      "type": "VEC3"
    },
    {
      "bufferView": 7,
      "componentType": 5126,
      "count": 2688,
      "type": "VEC3"
    },
    {
      "bufferView": 8,
      "componentType": 5126,
      "count": 2688,
      "type": "VEC4"
    },
    {
      "bufferView": 9,
      "componentType": 5126,
      "count": 2688,
      "type": "VEC2"
    },
    {
      "bufferView": 10,
      "componentType": 5125,
      "count": 52176,
      "type": "SCALAR"
    },
    {
      "bufferView": 11,
      "componentType": 5126,
      "count": 9274,
      "max": [
        0.927357971668243,
        2.63906908035278,
        0.253331989049911
      ],
      "min": [
        -0.927320003509521,
        1.11647498607635,
        -1.00059509277344
      ],
      "type": "VEC3"
    },
    {
      "bufferView": 12,
      "componentType": 5126,
      "count": 9274,
      "type": "VEC3"
    },
    {
      "bufferView": 13,
      "componentType": 5126,
      "count": 9274,
      "type": "VEC4"
    },
    {
      "bufferView": 14,
      "componentType": 5126,
      "count": 9274,
      "type": "VEC2"
    },
    {
      "bufferView": 15,
      "componentType": 5125,
      "count": 5100,
      "type": "SCALAR"
    },
    {
      "bufferView": 16,
      "componentType": 5126,
      "count": 1061,
      "max": [
        0.928894996643066,
        0.179141044616699,
        0.927063047885895
      ],
      "min": [
        -0.928896009922028,
        0.0126940011978149,
        -0.92706298828125
      ],
      "type": "VEC3"
    },
    {
      "bufferView": 17,
      "componentType": 5126,
      "count": 1061,
      "type": "VEC3"
    },
    {
      "bufferView": 18,
      "componentType": 5126,
      "count": 1061,
      "type": "VEC4"
    },
    {
      "bufferView": 19,
      "componentType": 5126,
      "count": 1061,
      "type": "VEC2"
    },
    {
      "bufferView": 20,
      "componentType": 5125,
      "count": 4344,
      "type": "SCALAR"
    },
    {
      "bufferView": 21,
      "componentType": 5126,
      "count": 1155,
      "max": [
        0.204841002821922,
        1.18916702270508,
        0.204437017440796
      ],
      "min": [
        -0.21806700527668,
        0.158092021942139,
        -0.204437002539635
      ],
      "type": "VEC3"
    },
    {
      "bufferView": 22,
      "componentType": 5126,
      "count": 1155,
      "type": "VEC3"
    },
    {
      "bufferView": 23,
      "componentType": 5126,
      "count": 1155,
      "type": "VEC4"
    },
    {
      "bufferView": 24,
      "componentType": 5126,
      "count": 1155,
      "type": "VEC2"
    },
    {
      "bufferView": 25,
      "componentType": 5125,
      "count": 720,
      "type": "SCALAR"
    },
    {
      "bufferView": 26,
      "componentType": 5126,
      "count": 244,
      "max": [
        -0.0714610069990158,
        0.764326989650726,
        0.154066994786263
      ],
      "min": [
        -0.123962007462978,
        0.711826026439667,
        -0.154066994786263
      ],
      "type": "VEC3"
    },
    {
      "bufferView": 27,
      "componentType": 5126,
      "count": 244,
      "type": "VEC3"
    },
    {
      "bufferView": 28,
      "componentType": 5126,
      "count": 244,
      "type": "VEC4"
    },
    {
      "bufferView": 29,
      "componentType": 5126,
      "count": 244,
      "type": "VEC2"
    },
    {
      "bufferView": 30,
      "componentType": 5125,
      "count": 960,
      "type": "SCALAR"
    },
    {
      "bufferView": 31,
      "componentType": 5126,
      "count": 194,
      "max": [
        0.652513086795807,
        1.14433300495148,
        0.697785079479218
      ],
      "min": [
        -0.652513027191162,
        1.09451699256897,
        -0.697785079479218
      ],
      "type": "VEC3"
    },
    {
      "bufferView": 32,
      "componentType": 5126,
      "count": 194,
      "type": "VEC3"
    },
    {
      "bufferView": 33,
      "componentType": 5126,
      "count": 194,
      "type": "VEC4"
    },
    {
      "bufferView": 34,
      "componentType": 5126,
      "count": 194,
      "type": "VEC2"
    }
  ],
  "asset": {
    "generator": "Adobe Substance 3D Painter 11.0.1",
    "version": "2.0"
  },
  "bufferViews": [
    {
      "buffer": 0,
      "byteLength": 14400,
      "target": 34963
    },
    {
      "buffer": 0,
      "byteLength": 9036,
      "byteOffset": 14400,
      "target": 34962
    },
    {
      "buffer": 0,
      "byteLength": 9036,
      "byteOffset": 23436,
      "target": 34962
    },
    {
      "buffer": 0,
      "byteLength": 12048,
      "byteOffset": 32472,
      "target": 34962
    },
    {
      "buffer": 0,
      "byteLength": 6024,
      "byteOffset": 44520,
      "target": 34962
    },
    {
      "buffer": 0,
      "byteLength": 61584,
      "byteOffset": 50544,
      "target": 34963
    },
    {
      "buffer": 0,
      "byteLength": 32256,
      "byteOffset": 112128,
      "target": 34962
    },
    {
      "buffer": 0,
      "byteLength": 32256,
      "byteOffset": 144384,
      "target": 34962
    },
    {
      "buffer": 0,
      "byteLength": 43008,
      "byteOffset": 176640,
      "target": 34962
    },
    {
      "buffer": 0,
      "byteLength": 21504,
      "byteOffset": 219648,
      "target": 34962
    },
    {
      "buffer": 0,
      "byteLength": 208704,
      "byteOffset": 241152,
      "target": 34963
    },
    {
      "buffer": 0,
      "byteLength": 111288,
      "byteOffset": 449856,
      "target": 34962
    },
    {
      "buffer": 0,
      "byteLength": 111288,
      "byteOffset": 561144,
      "target": 34962
    },
    {
      "buffer": 0,
      "byteLength": 148384,
      "byteOffset": 672432,
      "target": 34962
    },
    {
      "buffer": 0,
      "byteLength": 74192,
      "byteOffset": 820816,
      "target": 34962
    },
    {
      "buffer": 0,
      "byteLength": 20400,
      "byteOffset": 895008,
      "target": 34963
    },
    {
      "buffer": 0,
      "byteLength": 12732,
      "byteOffset": 915408,
      "target": 34962
    },
    {
      "buffer": 0,
      "byteLength": 12732,
      "byteOffset": 928140,
      "target": 34962
    },
    {
      "buffer": 0,
      "byteLength": 16976,
      "byteOffset": 940872,
      "target": 34962
    },
    {
      "buffer": 0,
      "byteLength": 8488,
      "byteOffset": 957848,
      "target": 34962
    },
    {
      "buffer": 0,
      "byteLength": 17376,
      "byteOffset": 966336,
      "target": 34963
    },
    {
      "buffer": 0,
      "byteLength": 13860,
      "byteOffset": 983712,
      "target": 34962
    },
    {
      "buffer": 0,
      "byteLength": 13860,
      "byteOffset": 997572,
      "target": 34962
    },
    {
      "buffer": 0,
      "byteLength": 18480,
      "byteOffset": 1011432,
      "target": 34962
    },
    {
      "buffer": 0,
      "byteLength": 9240,
      "byteOffset": 1029912,
      "target": 34962
    },
    {
      "buffer": 0,
      "byteLength": 2880,
      "byteOffset": 1039152,
      "target": 34963
    },
    {
      "buffer": 0,
      "byteLength": 2928,
      "byteOffset": 1042032,
      "target": 34962
    },
    {
      "buffer": 0,
      "byteLength": 2928,
      "byteOffset": 1044960,
      "target": 34962
    },
    {
      "buffer": 0,
      "byteLength": 3904,
      "byteOffset": 1047888,
      "target": 34962
    },
    {
      "buffer": 0,
      "byteLength": 1952,
      "byteOffset": 1051792,
      "target": 34962
    },
    {
      "buffer": 0,
      "byteLength": 3840,
      "byteOffset": 1053744,
      "target": 34963
    },
    {
      "buffer": 0,
      "byteLength": 2328,
      "byteOffset": 1057584,
      "target": 34962
    },
    {
      "buffer": 0,
      "byteLength": 2328,
      "byteOffset": 1059912,
      "target": 34962
    },
    {
      "buffer": 0,
      "byteLength": 3104,
      "byteOffset": 1062240,
      "target": 34962
    },
    {
      "buffer": 0,
      "byteLength": 1552,
      "byteOffset": 1065344,
      "target": 34962
    }
  ],
  "buffers": [
    {
      "byteLength": 1066896,
      "uri": "chair.bin"
    }
  ],
  "images": [
    {
      "uri": "lether_baseColor.png"
    },
    {
      "uri": "lether_occlusionRoughnessMetallic.png"
    },
    {
      "uri": "lether_normal.png"
    },
    {
      "uri": "metal_baseColor.png"
    },
    {
      "uri": "metal_occlusionRoughnessMetallic.png"
    },
    {
      "uri": "metal_normal.png"
    },
    {
      "uri": "plastic_baseColor.png"
    },
    {
      "uri": "plastic_occlusionRoughnessMetallic.png"
    },
    {
      "uri": "plastic_normal.png"
    }
  ],
  "materials": [
    {
      "alphaMode": "OPAQUE",
      "name": "lether",
      "normalTexture": {
        "index": 2
      },
      "occlusionTexture": {
        "index": 1
      },
      "pbrMetallicRoughness": {
        "baseColorTexture": {
          "index": 0
        },
        "metallicRoughnessTexture": {
          "index": 1
        }
      }
    },
    {
      "alphaMode": "OPAQUE",
      "name": "metal",
      "normalTexture": {
        "index": 5
      },
      "occlusionTexture": {
        "index": 4
      },
      "pbrMetallicRoughness": {
        "baseColorTexture": {
          "index": 3
        },
        "metallicRoughnessTexture": {
          "index": 4
        }
      }
    },
    {
      "alphaMode": "OPAQUE",
      "name": "plastic",
      "normalTexture": {
        "index": 8
      },
      "occlusionTexture": {
        "index": 7
      },
      "pbrMetallicRoughness": {
        "baseColorTexture": {
          "index": 6
        },
        "metallicRoughnessTexture": {
          "index": 7
        }
      }
    }
  ],
  "meshes": [
    {
      "name": "_lift1_me",
      "primitives": [
        {
          "attributes": {
            "NORMAL": 2,
            "POSITION": 1,
            "TANGENT": 3,
            "TEXCOORD_0": 4
          },
          "indices": 0,
          "material": 1,
          "mode": 4
        }
      ]
    },
    {
      "name": "seat_le",
      "primitives": [
        {
          "attributes": {
            "NORMAL": 7,
            "POSITION": 6,
            "TANGENT": 8,
            "TEXCOORD_0": 9
          },
          "indices": 5,
          "material": 0,
          "mode": 4
        }
      ]
    },
    {
      "name": "backrest_le",
      "primitives": [
        {
          "attributes": {
            "NORMAL": 12,
            "POSITION": 11,
            "TANGENT": 13,
            "TEXCOORD_0": 14
          },
          "indices": 10,
          "material": 0,
          "mode": 4
        }
      ]
    },
    {
      "name": "base_me",
      "primitives": [
        {
          "attributes": {
            "NORMAL": 17,
            "POSITION": 16,
            "TANGENT": 18,
            "TEXCOORD_0": 19
          },
          "indices": 15,
          "material": 1,
          "mode": 4
        }
      ]
    },
    {
      "name": "_column_me",
      "primitives": [
        {
          "attributes": {
            "NORMAL": 22,
            "POSITION": 21,
            "TANGENT": 23,
            "TEXCOORD_0": 24
          },
          "indices": 20,
          "material": 1,
          "mode": 4
        }
      ]
    },
    {
      "name": "lift2_me",
      "primitives": [
        {
          "attributes": {
            "NORMAL": 27,
            "POSITION": 26,
            "TANGENT": 28,
            "TEXCOORD_0": 29
          },
          "indices": 25,
          "material": 1,
          "mode": 4
        }
      ]
    },
    {
      "name": "pCube11",
      "primitives": [
        {
          "attributes": {
            "NORMAL": 32,
            "POSITION": 31,
            "TANGENT": 33,
            "TEXCOORD_0": 34
          },
          "indices": 30,
          "material": 2,
          "mode": 4
        }
      ]
    }
  ],
  "nodes": [
    {
      "children": [
        1,
        3,
        5,
        7,
        9,
        11,
        13
      ],
      "name": "4.OBJ",
      "scale": [
        0.00999999977648258,
        0.00999999977648258,
        0.00999999977648258
      ]
    },
    {
      "children": [
        2
      ],
      "name": "_lift1_me"
    },
    {
      "mesh": 0,
      "name": "_lift1_me"
    },
    {
      "children": [
        4
      ],
      "name": "seat_le"
    },
    {
      "mesh": 1,
      "name": "seat_le"
    },
    {
      "children": [
        6
      ],
      "name": "backrest_le"
    },
    {
      "mesh": 2,
      "name": "backrest_le"
    },
    {
      "children": [
        8
      ],
      "name": "base_me"
    },
    {
      "mesh": 3,
      "name": "base_me"
    },
    {
      "children": [
        10
      ],
      "name": "_column_me"
    },
    {
      "mesh": 4,
      "name": "_column_me"
    },
    {
      "children": [
        12
      ],
      "name": "lift2_me"
    },
    {
      "mesh": 5,
      "name": "lift2_me"
    },
    {
      "children": [
        14
      ],
      "name": "pCube11"
    },
    {
      "mesh": 6,
      "name": "pCube11"
    }
  ],
  "samplers": [
    {
      "magFilter": 9729,
      "minFilter": 9985,
      "wrapS": 10497,
      "wrapT": 10497
    }
  ],
  "scene": 0,
  "scenes": [
    {
      "name": "Scene",
      "nodes": [
        0
      ]
    }
  ],
  "textures": [
    {
      "sampler": 0,
      "source": 0
    },
    {
      "sampler": 0,
      "source": 1
    },
    {
      "sampler": 0,
      "source": 2
    },
    {
      "sampler": 0,
      "source": 3
    },
    {
      "sampler": 0,
      "source": 4
    },
    {
      "sampler": 0,
      "source": 5
    },
    {
      "sampler": 0,
      "source": 6
    },
    {
      "sampler": 0,
      "source": 7
    },
    {
      "sampler": 0,
      "source": 8
    }
  ]
}