<svg width="24" height="17" viewBox="0 0 24 17" fill="none" xmlns="http://www.w3.org/2000/svg">
<path d="M7 4.125C7 5.85089 5.60089 7.25 3.875 7.25C2.14911 7.25 0.75 5.85089 0.75 4.125C0.75 2.39911 2.14911 1 3.875 1C5.60089 1 7 2.39911 7 4.125ZM7 4.125H23.25M17 12.875C17 14.6009 18.3991 16 20.125 16C21.8509 16 23.25 14.6009 23.25 12.875C23.25 11.1491 21.8509 9.75 20.125 9.75C18.3991 9.75 17 11.1491 17 12.875ZM17 12.875H0.75" stroke="white" stroke-width="1.5" stroke-linecap="round" stroke-linejoin="round"/>
</svg>
