<svg width="101" height="101" viewBox="0 0 101 101" fill="none" xmlns="http://www.w3.org/2000/svg">
<rect x="0.158203" y="0.791992" width="100" height="100" rx="18.75" fill="#FF7244" fill-opacity="0.05"/>
<path d="M43.8331 63.2925C43.3276 66.826 40.2887 69.5425 36.6152 69.5425C32.9418 69.5425 29.9029 66.826 29.3974 63.2925H27.2402V38.2925C27.2402 37.1419 28.173 36.2092 29.3236 36.2092H58.4902C59.6409 36.2092 60.5736 37.1419 60.5736 38.2925V42.4592H66.8236L73.0736 50.9085V63.2925H68.8332C68.3275 66.826 65.2886 69.5425 61.6152 69.5425C57.9419 69.5425 54.9029 66.826 54.3973 63.2925H43.8331ZM56.4069 40.3758H31.4069V57.1477C32.7304 55.7971 34.5749 54.9592 36.6152 54.9592C39.524 54.9592 42.0349 56.6623 43.2052 59.1258H55.0252C55.3746 58.3904 55.8436 57.7225 56.4069 57.1477V40.3758ZM60.5736 52.8758H68.9069V52.2821L64.7229 46.6258H60.5736V52.8758ZM61.6152 65.3758C62.9759 65.3758 64.1334 64.5063 64.5623 63.2925C64.6775 62.9667 64.7402 62.616 64.7402 62.2508C64.7402 60.525 63.3411 59.1258 61.6152 59.1258C59.8894 59.1258 58.4902 60.525 58.4902 62.2508C58.4902 62.616 58.5529 62.9667 58.6682 63.2925C59.0971 64.5063 60.2546 65.3758 61.6152 65.3758ZM39.7402 62.2508C39.7402 60.525 38.3411 59.1258 36.6152 59.1258C34.8893 59.1258 33.4902 60.525 33.4902 62.2508C33.4902 62.616 33.5529 62.9667 33.668 63.2925C34.097 64.5063 35.2546 65.3758 36.6152 65.3758C37.9759 65.3758 39.1334 64.5063 39.5624 63.2925C39.6776 62.9667 39.7402 62.616 39.7402 62.2508Z" fill="#FF7244"/>
</svg>
