<svg width="36" height="37" viewBox="0 0 36 37" fill="none" xmlns="http://www.w3.org/2000/svg">
<path fill-rule="evenodd" clip-rule="evenodd" d="M12.9613 22.5576C13.9651 23.5612 13.9651 25.1895 12.9613 26.1942C11.9575 27.1978 10.329 27.1978 9.32412 26.1942C8.32035 25.1906 8.32035 23.5623 9.32412 22.5576C10.329 21.5529 11.9575 21.5529 12.9613 22.5576" fill="black"/>
<path d="M8.57129 10.6611H22.2856" stroke="black" stroke-width="2.025"/>
<path d="M8.57129 16.6613H17.1427" stroke="black" stroke-width="2.025"/>
<path d="M23.1436 3.64868C25.596 3.64903 27.584 5.63757 27.584 8.09009V15.804H25.5596V8.09009C25.5596 6.75594 24.4776 5.67442 23.1436 5.67407H7.71484C6.38048 5.67407 5.29883 6.75573 5.29883 8.09009V28.6614C5.29889 29.9957 6.38053 31.0774 7.71484 31.0774H15.4277V33.1028H7.71484C5.26215 33.1028 3.2735 31.1141 3.27344 28.6614V8.09009C3.27344 5.63735 5.26211 3.64868 7.71484 3.64868H23.1436Z" fill="black"/>
<path d="M30.7836 30.8776L29.8225 31.8387C29.6617 31.9995 29.4437 32.0898 29.2164 32.0898H20.0693C19.842 32.0898 19.624 31.9995 19.4632 31.8387L18.5021 30.8776C18.1806 30.5561 18 30.1201 18 29.6654V28.3844C18 28.0339 18.2134 27.7187 18.5388 27.5885L21.7469 26.3053C22.0723 26.1751 22.2857 25.8599 22.2857 25.5095V23.0983C22.2857 23.0932 22.2826 23.0885 22.2778 23.0866L21.5886 22.8109C20.7154 22.4617 20.1429 21.6159 20.1429 20.6755C20.1429 19.4052 21.1726 18.3755 22.4428 18.3755H26.8429C28.1131 18.3755 29.1429 19.4052 29.1429 20.6755C29.1429 21.6159 28.5703 22.4617 27.6971 22.8109L27.0079 23.0866C27.0031 23.0885 27 23.0932 27 23.0983V25.5095C27 25.8599 27.2134 26.1751 27.5388 26.3053L30.7469 27.5885C31.0723 27.7187 31.2857 28.0339 31.2857 28.3844V29.6654C31.2857 30.1201 31.1051 30.5561 30.7836 30.8776Z" stroke="black" stroke-width="2.025"/>
</svg>
