<svg width="12" height="15" viewBox="0 0 12 15" fill="none" xmlns="http://www.w3.org/2000/svg">
<path d="M4.11361 12.8693C4.23318 12.8693 4.33008 12.8343 4.4043 12.7642C4.47852 12.6941 4.51356 12.6034 4.50944 12.492L4.31152 5.67627C4.31152 5.56082 4.27441 5.47011 4.2002 5.40413C4.12598 5.33816 4.03114 5.30518 3.91569 5.30518C3.79199 5.30518 3.69303 5.34022 3.61881 5.41032C3.54872 5.47629 3.51573 5.567 3.51986 5.68245L3.7054 12.492C3.71365 12.6075 3.75282 12.7002 3.82292 12.7703C3.89714 12.8363 3.99403 12.8693 4.11361 12.8693ZM6 12.8693C6.1237 12.8693 6.22266 12.8363 6.29687 12.7703C6.37522 12.7002 6.41439 12.6075 6.41439 12.492V5.68245C6.41439 5.567 6.37522 5.47629 6.29687 5.41032C6.22266 5.34022 6.1237 5.30518 6 5.30518C5.88043 5.30518 5.78147 5.34022 5.70312 5.41032C5.62891 5.47629 5.5918 5.567 5.5918 5.68245V12.492C5.5918 12.6075 5.62891 12.7002 5.70312 12.7703C5.78147 12.8363 5.88043 12.8693 6 12.8693ZM7.89258 12.8693C8.01215 12.8693 8.10699 12.8363 8.17708 12.7703C8.2513 12.7044 8.29047 12.6116 8.2946 12.492L8.48014 5.68245C8.48427 5.567 8.44922 5.47629 8.375 5.41032C8.3049 5.34022 8.20801 5.30518 8.08431 5.30518C7.97298 5.30518 7.88021 5.33816 7.80599 5.40413C7.73177 5.47011 7.6926 5.56288 7.68848 5.68245L7.49674 12.492C7.49262 12.6075 7.52561 12.7002 7.5957 12.7703C7.66992 12.8363 7.76888 12.8693 7.89258 12.8693ZM3.28483 3.80225V2.41683C3.28483 1.97152 3.4209 1.62104 3.69303 1.3654C3.96929 1.10563 4.34451 0.975748 4.81868 0.975748H7.16895C7.64312 0.975748 8.01628 1.10563 8.28841 1.3654C8.56467 1.62104 8.7028 1.97152 8.7028 2.41683V3.80225H7.7194V2.47868C7.7194 2.3055 7.66168 2.16531 7.54622 2.05811C7.4349 1.9509 7.28646 1.8973 7.10091 1.8973H4.88672C4.70117 1.8973 4.55067 1.9509 4.43522 2.05811C4.32389 2.16531 4.26823 2.3055 4.26823 2.47868V3.80225H3.28483ZM0.476888 4.29704C0.35319 4.29704 0.243923 4.25168 0.149088 4.16097C0.0583764 4.06613 0.0130205 3.95481 0.0130205 3.82699C0.0130205 3.70329 0.0583764 3.59608 0.149088 3.50537C0.243923 3.41054 0.35319 3.36312 0.476888 3.36312H11.5293C11.653 3.36312 11.7602 3.40847 11.8509 3.49919C11.9416 3.5899 11.987 3.69916 11.987 3.82699C11.987 3.95481 11.9416 4.06613 11.8509 4.16097C11.7643 4.25168 11.6571 4.29704 11.5293 4.29704H0.476888ZM3.16732 14.7495C2.722 14.7495 2.36122 14.6176 2.08496 14.3537C1.81283 14.0939 1.66645 13.7414 1.64583 13.2961L1.20671 4.16715H10.7933L10.3604 13.2899C10.3397 13.7352 10.1913 14.0898 9.91504 14.3537C9.63878 14.6176 9.28006 14.7495 8.83887 14.7495H3.16732Z" fill="#484747"/>
</svg>
