<svg width="20" height="20" viewBox="0 0 20 20" fill="none" xmlns="http://www.w3.org/2000/svg">
<path d="M11 9L11 15H9L9 9C9 8.44772 9.44771 8 10 8C10.5523 8 11 8.44772 11 9Z" fill="white" fill-opacity="0.6"/>
<path d="M10 4.75C9.37868 4.75 8.875 5.25368 8.875 5.875C8.875 6.49632 9.37868 7 10 7C10.6213 7 11.125 6.49632 11.125 5.875C11.125 5.25368 10.6213 4.75 10 4.75Z" fill="white" fill-opacity="0.6"/>
<path fill-rule="evenodd" clip-rule="evenodd" d="M10 0C4.47715 0 0 4.47715 0 10C0 15.5228 4.47715 20 10 20C15.5228 20 20 15.5228 20 10C20 4.47715 15.5228 0 10 0ZM10 2C5.58172 2 2 5.58172 2 10C2 14.4183 5.58172 18 10 18C14.4183 18 18 14.4183 18 10C18 5.58172 14.4183 2 10 2Z" fill="white" fill-opacity="0.6"/>
</svg>
