<svg xmlns="http://www.w3.org/2000/svg" width="298" height="262" viewBox="0 0 298 262" fill="none">
<path d="M192.73 261.707H0V254.055H31.8687V9.1827H0V0H104.711V9.1827H97.479C82.1965 9.1827 69.8076 21.5665 69.8076 36.8428V254.055H138.098C149.985 254.055 160.608 248.443 169.966 237.22C180.463 224.849 187.039 209.034 189.694 189.776H202.214L192.73 261.707Z" fill="#fffbfb"/>
<path d="M170.97 130.088V222.204L205.599 251.831C228.15 252.086 234.68 249.846 242.197 240.663C250.096 232.118 253.918 214.646 253.663 188.245C253.663 166.309 248.376 151.068 237.801 142.523C228.118 133.978 209.963 129.833 183.336 130.088H170.97ZM170.97 9.1827V120.906H198.624C217.353 121.161 230.157 117.016 237.037 108.471C244.172 100.436 247.675 85.195 247.548 62.7484C248.312 26.4003 230.985 8.54501 195.567 9.1827H170.97ZM204.343 261.707L205.599 251.831L170.97 222.204C163.9 234.047 151.129 246.813 132.749 247.877V39.7472C132.749 22.8669 119.059 9.1827 102.171 9.1827V0H197.095C256.211 0.892762 290.356 14.8136 290.356 62.7484C290.356 110.683 266.404 117.845 223.086 123.966V125.497C267.805 131.109 298 148.136 298 189.776C298 219.735 292.617 234.697 277.779 245.749C250.821 265.828 242.692 261.579 204.343 261.707Z" fill="#fffbfb"/>
</svg>