<svg width="33" height="32" viewBox="0 0 33 32" fill="none" xmlns="http://www.w3.org/2000/svg">
<path d="M5.71011 3.76765L16.666 1.33301L27.6219 3.76765C28.232 3.90322 28.666 4.4443 28.666 5.06923V18.3849C28.666 21.0597 27.3292 23.5575 25.1036 25.0413L16.666 30.6663L8.22842 25.0413C6.00283 23.5575 4.66602 21.0597 4.66602 18.3849V5.06923C4.66602 4.4443 5.10006 3.90322 5.71011 3.76765ZM7.33268 6.13879V18.3849C7.33268 20.1681 8.22388 21.8333 9.70762 22.8225L16.666 27.4614L23.6244 22.8225C25.1082 21.8333 25.9993 20.1681 25.9993 18.3849V6.13879L16.666 4.06473L7.33268 6.13879Z" fill="#FF7244"/>
</svg>
