<svg xmlns="http://www.w3.org/2000/svg" width="32" height="32" viewBox="0 0 32 32" fill="none">
<path d="M11.9514 24.0003C11.628 26.2618 9.68302 28.0003 7.33203 28.0003C4.98104 28.0003 3.03611 26.2618 2.71262 24.0003H1.33203V8.00033C1.33203 7.26395 1.92899 6.66699 2.66536 6.66699H21.332C22.0684 6.66699 22.6654 7.26395 22.6654 8.00033V10.667H26.6654L30.6654 16.0746V24.0003H27.9515C27.6279 26.2618 25.683 28.0003 23.332 28.0003C20.9811 28.0003 19.0362 26.2618 18.7126 24.0003H11.9514ZM19.9987 9.33366H3.9987V20.0677C4.84571 19.2033 6.02624 18.667 7.33203 18.667C9.19363 18.667 10.8006 19.757 11.5496 21.3337H19.1144C19.338 20.863 19.6382 20.4355 19.9987 20.0677V9.33366ZM22.6654 17.3337H27.9987V16.9537L25.321 13.3337H22.6654V17.3337ZM23.332 25.3337C24.2028 25.3337 24.9436 24.7771 25.2182 24.0003C25.2919 23.7918 25.332 23.5674 25.332 23.3337C25.332 22.2291 24.4366 21.3337 23.332 21.3337C22.2275 21.3337 21.332 22.2291 21.332 23.3337C21.332 23.5674 21.3722 23.7918 21.4459 24.0003C21.7204 24.7771 22.4612 25.3337 23.332 25.3337ZM9.33203 23.3337C9.33203 22.2291 8.4366 21.3337 7.33203 21.3337C6.22746 21.3337 5.33203 22.2291 5.33203 23.3337C5.33203 23.5674 5.37214 23.7918 5.44583 24.0003C5.72039 24.7771 6.46122 25.3337 7.33203 25.3337C8.20284 25.3337 8.94367 24.7771 9.21823 24.0003C9.29192 23.7918 9.33203 23.5674 9.33203 23.3337Z" fill="#1f3830"/>
</svg>